<svg width="28" height="40" viewBox="0 0 28 40" fill="none" xmlns="http://www.w3.org/2000/svg">
<path d="M14 0C21.72 0 28 6.26 28 14C28 24.5 14 40 14 40C14 40 0 24.5 0 14C0 10.287 1.475 6.72601 4.10051 4.1005C6.72602 1.475 10.287 0 14 0Z" fill="#1875FF"/>
<rect x="4" y="4" width="20" height="20" rx="10" fill="white"/>
<path d="M9.469 12.929C11.705 12.812 13.213 12.266 13.954 11.382C14.708 12.266 16.216 12.812 18.439 12.929L18.92 11.668C16.515 11.564 15.345 10.992 15.007 10.316H18.335V9.081H14.812V8.132H13.096V9.081H9.599V10.316H12.901C12.576 10.992 11.406 11.564 9.001 11.668L9.469 12.929ZM19.362 14.489V13.228H8.585V14.489H13.109V15.204H9.794V16.439H16.372V17.011H9.807V20.027H18.374V18.792H11.51V18.168H18.062V15.204H14.825V14.489H19.362Z" fill="#1875FF"/>
</svg>
