<svg width="34" height="34" viewBox="0 0 34 34" fill="none" xmlns="http://www.w3.org/2000/svg">
<g filter="url(#filter0_d)">
<rect x="5.5" y="0.5" width="23" height="23" rx="6.5" fill="white" stroke="#FF7864"/>
</g>
<path d="M14.8027 16H13.1094V9.47266L11.0879 10.0996V8.72266L14.6211 7.45703H14.8027V16ZM23.3223 12.4727C23.3223 13.6523 23.0781 14.5547 22.5898 15.1797C22.1016 15.8047 21.3867 16.1172 20.4453 16.1172C19.5156 16.1172 18.8047 15.8105 18.3125 15.1973C17.8203 14.584 17.5684 13.7051 17.5566 12.5605V10.9902C17.5566 9.79883 17.8027 8.89453 18.2949 8.27734C18.791 7.66016 19.5039 7.35156 20.4336 7.35156C21.3633 7.35156 22.0742 7.6582 22.5664 8.27148C23.0586 8.88086 23.3105 9.75781 23.3223 10.9023V12.4727ZM21.6289 10.75C21.6289 10.043 21.5312 9.5293 21.3359 9.20898C21.1445 8.88477 20.8438 8.72266 20.4336 8.72266C20.0352 8.72266 19.7402 8.87695 19.5488 9.18555C19.3613 9.49023 19.2617 9.96875 19.25 10.6211V12.6953C19.25 13.3906 19.3438 13.9082 19.5312 14.248C19.7227 14.584 20.0273 14.752 20.4453 14.752C20.8594 14.752 21.1582 14.5898 21.3418 14.2656C21.5254 13.9414 21.6211 13.4453 21.6289 12.7773V10.75Z" fill="#FF7864"/>
<defs>
<filter id="filter0_d" x="0" y="0" width="34" height="34" filterUnits="userSpaceOnUse" color-interpolation-filters="sRGB">
<feFlood flood-opacity="0" result="BackgroundImageFix"/>
<feColorMatrix in="SourceAlpha" type="matrix" values="0 0 0 0 0 0 0 0 0 0 0 0 0 0 0 0 0 0 127 0"/>
<feOffset dy="5"/>
<feGaussianBlur stdDeviation="2.5"/>
<feColorMatrix type="matrix" values="0 0 0 0 0.133333 0 0 0 0 0.133333 0 0 0 0 0.133333 0 0 0 0.5 0"/>
<feBlend mode="normal" in2="BackgroundImageFix" result="effect1_dropShadow"/>
<feBlend mode="normal" in="SourceGraphic" in2="effect1_dropShadow" result="shape"/>
</filter>
</defs>
</svg>
