<svg width="34" height="34" viewBox="0 0 34 34" fill="none" xmlns="http://www.w3.org/2000/svg">
<g filter="url(#filter0_d)">
<rect x="5.5" y="0.5" width="23" height="23" rx="6.5" fill="#222222" stroke="#F3F3F3"/>
</g>
<path d="M19.9824 16H14.1348V14.8398L16.8945 11.8984C17.2734 11.4844 17.5527 11.123 17.7324 10.8145C17.916 10.5059 18.0078 10.2129 18.0078 9.93555C18.0078 9.55664 17.9121 9.25977 17.7207 9.04492C17.5293 8.82617 17.2559 8.7168 16.9004 8.7168C16.5176 8.7168 16.2148 8.84961 15.9922 9.11523C15.7734 9.37695 15.6641 9.72266 15.6641 10.1523H13.9648C13.9648 9.63281 14.0879 9.1582 14.334 8.72852C14.584 8.29883 14.9355 7.96289 15.3887 7.7207C15.8418 7.47461 16.3555 7.35156 16.9297 7.35156C17.8086 7.35156 18.4902 7.5625 18.9746 7.98438C19.4629 8.40625 19.707 9.00195 19.707 9.77148C19.707 10.1934 19.5977 10.623 19.3789 11.0605C19.1602 11.498 18.7852 12.0078 18.2539 12.5898L16.3145 14.6348H19.9824V16Z" fill="#F3F3F3"/>
<defs>
<filter id="filter0_d" x="0" y="0" width="34" height="34" filterUnits="userSpaceOnUse" color-interpolation-filters="sRGB">
<feFlood flood-opacity="0" result="BackgroundImageFix"/>
<feColorMatrix in="SourceAlpha" type="matrix" values="0 0 0 0 0 0 0 0 0 0 0 0 0 0 0 0 0 0 127 0"/>
<feOffset dy="5"/>
<feGaussianBlur stdDeviation="2.5"/>
<feColorMatrix type="matrix" values="0 0 0 0 0.133333 0 0 0 0 0.133333 0 0 0 0 0.133333 0 0 0 0.5 0"/>
<feBlend mode="normal" in2="BackgroundImageFix" result="effect1_dropShadow"/>
<feBlend mode="normal" in="SourceGraphic" in2="effect1_dropShadow" result="shape"/>
</filter>
</defs>
</svg>
