<svg width="34" height="34" viewBox="0 0 34 34" fill="none" xmlns="http://www.w3.org/2000/svg">
<g filter="url(#filter0_d)">
<rect x="5.5" y="0.5" width="23" height="23" rx="6.5" fill="#222222" stroke="white"/>
</g>
<path d="M15.8574 10.9844H16.7598C17.1895 10.9844 17.5078 10.877 17.7148 10.6621C17.9219 10.4473 18.0254 10.1621 18.0254 9.80664C18.0254 9.46289 17.9219 9.19531 17.7148 9.00391C17.5117 8.8125 17.2305 8.7168 16.8711 8.7168C16.5469 8.7168 16.2754 8.80664 16.0566 8.98633C15.8379 9.16211 15.7285 9.39258 15.7285 9.67773H14.0352C14.0352 9.23242 14.1543 8.83398 14.3926 8.48242C14.6348 8.12695 14.9707 7.84961 15.4004 7.65039C15.834 7.45117 16.3105 7.35156 16.8301 7.35156C17.7324 7.35156 18.4395 7.56836 18.9512 8.00195C19.4629 8.43164 19.7188 9.02539 19.7188 9.7832C19.7188 10.1738 19.5996 10.5332 19.3613 10.8613C19.123 11.1895 18.8105 11.4414 18.4238 11.6172C18.9043 11.7891 19.2617 12.0469 19.4961 12.3906C19.7344 12.7344 19.8535 13.1406 19.8535 13.6094C19.8535 14.3672 19.5762 14.9746 19.0215 15.4316C18.4707 15.8887 17.7402 16.1172 16.8301 16.1172C15.9785 16.1172 15.2812 15.8926 14.7383 15.4434C14.1992 14.9941 13.9297 14.4004 13.9297 13.6621H15.623C15.623 13.9824 15.7422 14.2441 15.9805 14.4473C16.2227 14.6504 16.5195 14.752 16.8711 14.752C17.2734 14.752 17.5879 14.6465 17.8145 14.4355C18.0449 14.2207 18.1602 13.9375 18.1602 13.5859C18.1602 12.7344 17.6914 12.3086 16.7539 12.3086H15.8574V10.9844Z" fill="white"/>
<defs>
<filter id="filter0_d" x="0" y="0" width="34" height="34" filterUnits="userSpaceOnUse" color-interpolation-filters="sRGB">
<feFlood flood-opacity="0" result="BackgroundImageFix"/>
<feColorMatrix in="SourceAlpha" type="matrix" values="0 0 0 0 0 0 0 0 0 0 0 0 0 0 0 0 0 0 127 0"/>
<feOffset dy="5"/>
<feGaussianBlur stdDeviation="2.5"/>
<feColorMatrix type="matrix" values="0 0 0 0 0.133333 0 0 0 0 0.133333 0 0 0 0 0.133333 0 0 0 0.5 0"/>
<feBlend mode="normal" in2="BackgroundImageFix" result="effect1_dropShadow"/>
<feBlend mode="normal" in="SourceGraphic" in2="effect1_dropShadow" result="shape"/>
</filter>
</defs>
</svg>
