<svg width="34" height="34" viewBox="0 0 34 34" fill="none" xmlns="http://www.w3.org/2000/svg">
<g filter="url(#filter0_d)">
<rect x="5.5" y="0.5" width="23" height="23" rx="6.5" fill="#222222" stroke="#F3F3F3"/>
</g>
<path d="M18.7285 7.38086V8.77539H18.5645C17.7988 8.78711 17.1816 8.98633 16.7129 9.37305C16.248 9.75977 15.9688 10.2969 15.875 10.9844C16.3281 10.5234 16.9004 10.293 17.5918 10.293C18.334 10.293 18.9238 10.5586 19.3613 11.0898C19.7988 11.6211 20.0176 12.3203 20.0176 13.1875C20.0176 13.7422 19.8965 14.2441 19.6543 14.6934C19.416 15.1426 19.0762 15.4922 18.6348 15.7422C18.1973 15.9922 17.7012 16.1172 17.1465 16.1172C16.248 16.1172 15.5215 15.8047 14.9668 15.1797C14.416 14.5547 14.1406 13.7207 14.1406 12.6777V12.0684C14.1406 11.1426 14.3145 10.3262 14.6621 9.61914C15.0137 8.9082 15.5156 8.35938 16.168 7.97266C16.8242 7.58203 17.584 7.38477 18.4473 7.38086H18.7285ZM17.0762 11.6523C16.8027 11.6523 16.5547 11.7246 16.332 11.8691C16.1094 12.0098 15.9453 12.1973 15.8398 12.4316V12.9473C15.8398 13.5137 15.9512 13.957 16.1738 14.2773C16.3965 14.5938 16.709 14.752 17.1113 14.752C17.4746 14.752 17.7676 14.6094 17.9902 14.3242C18.2168 14.0352 18.3301 13.6621 18.3301 13.2051C18.3301 12.7402 18.2168 12.3652 17.9902 12.0801C17.7637 11.7949 17.459 11.6523 17.0762 11.6523Z" fill="#F3F3F3"/>
<defs>
<filter id="filter0_d" x="0" y="0" width="34" height="34" filterUnits="userSpaceOnUse" color-interpolation-filters="sRGB">
<feFlood flood-opacity="0" result="BackgroundImageFix"/>
<feColorMatrix in="SourceAlpha" type="matrix" values="0 0 0 0 0 0 0 0 0 0 0 0 0 0 0 0 0 0 127 0"/>
<feOffset dy="5"/>
<feGaussianBlur stdDeviation="2.5"/>
<feColorMatrix type="matrix" values="0 0 0 0 0.133333 0 0 0 0 0.133333 0 0 0 0 0.133333 0 0 0 0.5 0"/>
<feBlend mode="normal" in2="BackgroundImageFix" result="effect1_dropShadow"/>
<feBlend mode="normal" in="SourceGraphic" in2="effect1_dropShadow" result="shape"/>
</filter>
</defs>
</svg>
