<svg width="34" height="34" viewBox="0 0 34 34" fill="none" xmlns="http://www.w3.org/2000/svg">
<g filter="url(#filter0_d)">
<rect x="5.5" y="0.5" width="23" height="23" rx="6.5" fill="white" stroke="#FF7864"/>
</g>
<path d="M19.6953 9.73633C19.6953 10.1504 19.5918 10.5176 19.3848 10.8379C19.1777 11.1582 18.8926 11.4141 18.5293 11.6055C18.9434 11.8047 19.2715 12.0801 19.5137 12.4316C19.7559 12.7793 19.877 13.1895 19.877 13.6621C19.877 14.4199 19.6191 15.0195 19.1035 15.4609C18.5879 15.8984 17.8867 16.1172 17 16.1172C16.1133 16.1172 15.4102 15.8965 14.8906 15.4551C14.3711 15.0137 14.1113 14.416 14.1113 13.6621C14.1113 13.1895 14.2324 12.7773 14.4746 12.4258C14.7168 12.0742 15.043 11.8008 15.4531 11.6055C15.0898 11.4141 14.8047 11.1582 14.5977 10.8379C14.3945 10.5176 14.293 10.1504 14.293 9.73633C14.293 9.00977 14.5352 8.43164 15.0195 8.00195C15.5039 7.56836 16.1621 7.35156 16.9941 7.35156C17.8223 7.35156 18.4785 7.56641 18.9629 7.99609C19.4512 8.42188 19.6953 9.00195 19.6953 9.73633ZM18.1777 13.5391C18.1777 13.168 18.0703 12.8711 17.8555 12.6484C17.6406 12.4258 17.3516 12.3145 16.9883 12.3145C16.6289 12.3145 16.3418 12.4258 16.127 12.6484C15.9121 12.8672 15.8047 13.1641 15.8047 13.5391C15.8047 13.9023 15.9102 14.1953 16.1211 14.418C16.332 14.6406 16.625 14.752 17 14.752C17.3672 14.752 17.6543 14.6445 17.8613 14.4297C18.0723 14.2148 18.1777 13.918 18.1777 13.5391ZM18.002 9.81836C18.002 9.48633 17.9141 9.2207 17.7383 9.02148C17.5625 8.81836 17.3145 8.7168 16.9941 8.7168C16.6777 8.7168 16.4316 8.81445 16.2559 9.00977C16.0801 9.20508 15.9922 9.47461 15.9922 9.81836C15.9922 10.1582 16.0801 10.4316 16.2559 10.6387C16.4316 10.8457 16.6797 10.9492 17 10.9492C17.3203 10.9492 17.5664 10.8457 17.7383 10.6387C17.9141 10.4316 18.002 10.1582 18.002 9.81836Z" fill="#FF7864"/>
<defs>
<filter id="filter0_d" x="0" y="0" width="34" height="34" filterUnits="userSpaceOnUse" color-interpolation-filters="sRGB">
<feFlood flood-opacity="0" result="BackgroundImageFix"/>
<feColorMatrix in="SourceAlpha" type="matrix" values="0 0 0 0 0 0 0 0 0 0 0 0 0 0 0 0 0 0 127 0"/>
<feOffset dy="5"/>
<feGaussianBlur stdDeviation="2.5"/>
<feColorMatrix type="matrix" values="0 0 0 0 0.133333 0 0 0 0 0.133333 0 0 0 0 0.133333 0 0 0 0.5 0"/>
<feBlend mode="normal" in2="BackgroundImageFix" result="effect1_dropShadow"/>
<feBlend mode="normal" in="SourceGraphic" in2="effect1_dropShadow" result="shape"/>
</filter>
</defs>
</svg>
