<svg width="34" height="34" viewBox="0 0 34 34" fill="none" xmlns="http://www.w3.org/2000/svg">
<g filter="url(#filter0_d)">
<rect x="5.5" y="0.5" width="23" height="23" rx="6.5" fill="white" stroke="#FF7864"/>
</g>
<path d="M18.0957 12.5898C17.6543 13.0234 17.1387 13.2402 16.5488 13.2402C15.7949 13.2402 15.1914 12.9824 14.7383 12.4668C14.2852 11.9473 14.0586 11.248 14.0586 10.3691C14.0586 9.81055 14.1797 9.29883 14.4219 8.83398C14.668 8.36523 15.0098 8.00195 15.4473 7.74414C15.8848 7.48242 16.377 7.35156 16.9238 7.35156C17.4863 7.35156 17.9863 7.49219 18.4238 7.77344C18.8613 8.05469 19.2012 8.45898 19.4434 8.98633C19.6855 9.51367 19.8086 10.1172 19.8125 10.7969V11.4238C19.8125 12.8457 19.459 13.9629 18.752 14.7754C18.0449 15.5879 17.043 16.0215 15.7461 16.0762L15.3301 16.082V14.6699L15.7051 14.6641C17.1777 14.5977 17.9746 13.9062 18.0957 12.5898ZM16.9648 11.9453C17.2383 11.9453 17.4727 11.875 17.668 11.7344C17.8672 11.5938 18.0176 11.4238 18.1191 11.2246V10.5273C18.1191 9.95312 18.0098 9.50781 17.791 9.19141C17.5723 8.875 17.2793 8.7168 16.9121 8.7168C16.5723 8.7168 16.293 8.87305 16.0742 9.18555C15.8555 9.49414 15.7461 9.88281 15.7461 10.3516C15.7461 10.8164 15.8516 11.1992 16.0625 11.5C16.2773 11.7969 16.5781 11.9453 16.9648 11.9453Z" fill="#FF7864"/>
<defs>
<filter id="filter0_d" x="0" y="0" width="34" height="34" filterUnits="userSpaceOnUse" color-interpolation-filters="sRGB">
<feFlood flood-opacity="0" result="BackgroundImageFix"/>
<feColorMatrix in="SourceAlpha" type="matrix" values="0 0 0 0 0 0 0 0 0 0 0 0 0 0 0 0 0 0 127 0"/>
<feOffset dy="5"/>
<feGaussianBlur stdDeviation="2.5"/>
<feColorMatrix type="matrix" values="0 0 0 0 0.133333 0 0 0 0 0.133333 0 0 0 0 0.133333 0 0 0 0.5 0"/>
<feBlend mode="normal" in2="BackgroundImageFix" result="effect1_dropShadow"/>
<feBlend mode="normal" in="SourceGraphic" in2="effect1_dropShadow" result="shape"/>
</filter>
</defs>
</svg>
